<?xml version="1.0" encoding="UTF-8"?>
<svg version="1.1" xmlns="http://www.w3.org/2000/svg" width="336" height="336">
<path d="M0 0 C0.77434387 -0.00974854 1.54868774 -0.01949707 2.34649658 -0.02954102 C19.20624031 -0.19810895 35.3566185 -0.05474187 51.77734375 4.23828125 C52.52097168 4.4202002 53.26459961 4.60211914 54.03076172 4.78955078 C95.35134572 14.99880967 132.19366939 43.04873904 154.46484375 79.05078125 C168.60238047 102.51715181 178.72670202 129.79118328 179.015625 157.4609375 C179.02537354 158.23528137 179.03512207 159.00962524 179.04516602 159.80743408 C179.21373395 176.66717781 179.07036687 192.817556 174.77734375 209.23828125 C174.5954248 209.98190918 174.41350586 210.72553711 174.22607422 211.49169922 C164.01681533 252.81228322 135.96688596 289.65460689 99.96484375 311.92578125 C76.49847319 326.06331797 49.22444172 336.18763952 21.5546875 336.4765625 C20.78034363 336.48631104 20.00599976 336.49605957 19.20819092 336.50610352 C2.34844719 336.67467145 -13.801931 336.53130437 -30.22265625 332.23828125 C-30.96628418 332.0563623 -31.70991211 331.87444336 -32.47607422 331.68701172 C-73.79665822 321.47775283 -110.63898189 293.42782346 -132.91015625 257.42578125 C-147.04769297 233.95941069 -157.17201452 206.68537922 -157.4609375 179.015625 C-157.47068604 178.24128113 -157.48043457 177.46693726 -157.49047852 176.66912842 C-157.65904645 159.80938469 -157.51567937 143.6590065 -153.22265625 127.23828125 C-153.0407373 126.49465332 -152.85881836 125.75102539 -152.67138672 124.98486328 C-142.46212783 83.66427928 -114.41219846 46.82195561 -78.41015625 24.55078125 C-54.94378569 10.41324453 -27.66975422 0.28892298 0 0 Z " fill="#E34038" transform="translate(157.22265625,-0.23828125)"/>
<path d="M0 0 C2.67114258 1.26831055 2.67114258 1.26831055 5.39453125 2.88671875 C6.41949707 3.48814697 7.44446289 4.0895752 8.50048828 4.70922852 C9.59345215 5.36205811 10.68641602 6.0148877 11.8125 6.6875 C13.56138473 7.71764672 15.31236364 8.74416414 17.06359863 9.77030945 C18.26395531 10.47369646 19.46373904 11.17806207 20.66296387 11.88337708 C26.5988249 15.36918364 32.60651013 18.72169982 38.625 22.0625 C49.06259748 27.87462498 59.39314249 33.85679721 69.69921875 39.8984375 C73.78448635 42.2931263 77.88304951 44.66025788 82 47 C91.37496264 52.3324419 100.67369049 57.79682892 109.98535156 63.23876953 C114.98868389 66.16183719 119.99436553 69.08087696 125 72 C122.47090536 74.83762588 119.6288567 76.52348208 116.34765625 78.4140625 C115.78418488 78.74103119 115.2207135 79.06799988 114.64016724 79.40487671 C113.42107843 80.11199675 112.20083969 80.81713722 110.97958374 81.52050781 C107.69643239 83.41203448 104.42222956 85.31889529 101.1484375 87.2265625 C100.13631447 87.81597626 100.13631447 87.81597626 99.10374451 88.41729736 C92.07601046 92.52060564 85.12965804 96.75409363 78.1875 101 C70.29865393 105.82046647 62.38667908 110.5681114 54.29736328 115.04638672 C48.2251769 118.40896781 42.29032806 121.9829535 36.35449219 125.57763672 C31.30657073 128.62711727 26.24546435 131.6547181 21.1875 134.6875 C19.0976138 135.94133549 17.00776877 137.19523961 14.91796875 138.44921875 C13.42789307 139.33552979 13.42789307 139.33552979 11.90771484 140.23974609 C9.98301022 141.40491153 8.07632727 142.6004274 6.18994141 143.82666016 C5.31901855 144.38530762 4.4480957 144.94395508 3.55078125 145.51953125 C2.79063721 146.02202393 2.03049316 146.5245166 1.24731445 147.04223633 C-1.61528779 148.26222423 -3.06692168 147.91750553 -6 147 C-8.04236366 145.90919214 -10.03653851 144.72716343 -12 143.5 C-13.33860942 142.67507701 -14.67857986 141.85236052 -16.01953125 141.03125 C-17.17702881 140.32162109 -17.17702881 140.32162109 -18.35791016 139.59765625 C-23.14643629 136.70206255 -27.99118732 133.90178232 -32.82626343 131.0848999 C-43.34561884 124.95325182 -53.79841634 118.72475543 -64.1875 112.375 C-75.43605331 105.50046705 -86.80595672 98.87104538 -98.2421875 92.3125 C-108.9957851 86.14154083 -119.58721582 79.73259019 -130 73 C-127.72520974 70.51899128 -125.38968921 68.91590909 -122.4765625 67.2421875 C-121.55335205 66.70811279 -120.6301416 66.17403809 -119.67895508 65.6237793 C-118.6711499 65.04668213 -117.66334473 64.46958496 -116.625 63.875 C-114.43334025 62.60851151 -112.24194527 61.34156473 -110.05078125 60.07421875 C-109.4776268 59.74353897 -108.90447235 59.41285919 -108.31394958 59.07215881 C-102.40028056 55.65974665 -96.51041145 52.20719087 -90.62268066 48.75027466 C-87.56024838 46.95229091 -84.49685206 45.15595094 -81.43359375 43.359375 C-80.82009064 42.9994899 -80.20658752 42.6396048 -79.57449341 42.26881409 C-75.27106754 39.74460308 -70.96596605 37.2232669 -66.66015625 34.703125 C-53.47745153 26.9859554 -40.31178861 19.24141948 -27.17919922 11.43920898 C-25.13261985 10.22378229 -23.08322581 9.01307989 -21.03076172 7.80761719 C-18.92553788 6.55201244 -16.83965935 5.2636266 -14.77001953 3.95019531 C-13.72313965 3.29889648 -12.67625977 2.64759766 -11.59765625 1.9765625 C-10.66574463 1.38182129 -9.73383301 0.78708008 -8.77368164 0.17431641 C-5.28891209 -1.30105914 -3.6077077 -1.04640035 0 0 Z " fill="#FEFDFC" transform="translate(175,17)"/>
<path d="M0 0 C1.88472879 0.93234755 3.76828707 1.86706144 5.65136719 2.80273438 C7.22491974 3.58312073 7.22491974 3.58312073 8.83026123 4.37927246 C13.7506902 6.89515005 18.49627141 9.68510696 23.25 12.5 C25.36582061 13.74359986 27.48170786 14.98708632 29.59765625 16.23046875 C30.66387207 16.85872559 31.73008789 17.48698242 32.82861328 18.13427734 C37.77243402 21.04272062 42.73062377 23.9263858 47.6875 26.8125 C57.25010663 32.38779327 66.80094404 37.98302559 76.34829712 43.5843811 C82.77698194 47.3560196 89.2076134 51.12411051 95.6484375 54.875 C96.70095703 55.48794922 97.75347656 56.10089844 98.83789062 56.73242188 C100.76574841 57.85442271 102.69407849 58.97561274 104.62304688 60.09570312 C106.3785186 61.11727771 108.11697413 62.16881288 109.83467102 63.25270081 C113.00534052 65.13746379 113.00534052 65.13746379 116.78593445 66.20310974 C121.44859463 67.86707943 125.16044521 69.83157045 128 74 C130.69833025 83.14902715 129.79185099 93.32207836 129.52090907 102.77876019 C129.42671828 106.62204852 129.41829676 110.46553482 129.40052795 114.30979919 C129.35402257 121.57849197 129.23111247 128.84377443 129.08028561 136.11096948 C128.91224069 144.38865057 128.83005869 152.66650035 128.75485408 160.94546425 C128.59833407 177.96561111 128.33474693 194.98244433 128 212 C124.31455264 210.56440032 121.02099489 208.9377409 117.625 206.90234375 C116.04585815 205.96044189 116.04585815 205.96044189 114.43481445 204.99951172 C113.87653961 204.66433533 113.31826477 204.32915894 112.74307251 203.98382568 C109.72245503 202.17061962 106.69451898 200.36968533 103.66796875 198.56640625 C102.72318916 198.00276367 102.72318916 198.00276367 101.75932312 197.42773438 C94.96385881 193.37575906 88.14027374 189.37221623 81.3125 185.375 C80.70494873 185.01912811 80.09739746 184.66325623 79.47143555 184.29660034 C71.31968619 179.52181506 63.16148555 174.75812413 55 170 C46.56625173 165.08222073 38.1331718 160.16329827 29.70678711 155.23291016 C28.47141682 154.51038014 27.23575346 153.78835091 25.99975586 153.06689453 C2.13517466 139.13517466 2.13517466 139.13517466 0 137 C-0.09634459 135.22839682 -0.12187481 133.45291592 -0.12025452 131.67869568 C-0.12162918 130.52458191 -0.12300385 129.37046814 -0.12442017 128.18138123 C-0.12082489 126.90392532 -0.11722961 125.62646942 -0.11352539 124.31030273 C-0.11324352 122.96041872 -0.11340125 121.61053456 -0.1139679 120.26065063 C-0.11425587 116.58519392 -0.10835916 112.90976957 -0.10139394 109.2343204 C-0.09516038 105.39726851 -0.0945566 101.56021596 -0.09336853 97.72315979 C-0.09025522 90.45228782 -0.08204183 83.18143081 -0.07201904 75.91056544 C-0.0608579 67.63500648 -0.05534745 59.35944682 -0.05032361 51.08388221 C-0.03985922 34.05591281 -0.02225978 17.02795798 0 0 Z " fill="#FEFCFB" transform="translate(33,110)"/>
<path d="M0 0 C0.2103105 17.75873988 0.36898163 35.5171563 0.46630955 53.27687263 C0.51270361 61.52322154 0.57594388 69.7687964 0.67895508 78.01464844 C0.76870539 85.20242227 0.82673388 92.38963557 0.84679645 99.57795417 C0.85852364 103.38393481 0.88604511 107.18831202 0.95157051 110.99377823 C1.01278313 114.57789953 1.03148316 118.15976177 1.01796913 121.74435616 C1.02161617 123.68295788 1.06999292 125.62131469 1.11978149 127.5592804 C1.0308063 135.90871677 1.0308063 135.90871677 -1.97121334 139.08686352 C-4.25742541 140.63290239 -6.49624672 141.84825865 -9 143 C-10.42348755 143.87120483 -10.42348755 143.87120483 -11.87573242 144.76000977 C-12.69404541 145.23237061 -13.5123584 145.70473145 -14.35546875 146.19140625 C-15.29519531 146.73627686 -16.23492187 147.28114746 -17.203125 147.8425293 C-18.68039062 148.69391479 -18.68039062 148.69391479 -20.1875 149.5625 C-22.33753122 150.8093931 -24.48726489 152.05679938 -26.63671875 153.3046875 C-27.70970215 153.92698242 -28.78268555 154.54927734 -29.88818359 155.19042969 C-34.43745555 157.83590307 -38.97076939 160.50789389 -43.5 163.1875 C-44.80940552 163.96202515 -44.80940552 163.96202515 -46.14526367 164.75219727 C-55.82309577 170.48153548 -65.49094367 176.22773405 -75.16040039 181.97119141 C-85.61657184 188.18146996 -96.08021607 194.37891921 -106.55566406 200.55664062 C-109.06758055 202.03990573 -111.57693063 203.5274443 -114.0859375 205.015625 C-115.66143107 205.94796274 -117.23695051 206.88025676 -118.8125 207.8125 C-119.53107178 208.23990479 -120.24964355 208.66730957 -120.98999023 209.10766602 C-125.88671957 212 -125.88671957 212 -127 212 C-127 166.13 -127 120.26 -127 73 C-119.41 68.71 -111.82 64.42 -104 60 C-99.50838883 57.37129117 -95.02708815 54.73543981 -90.5625 52.0625 C-88.26992619 50.69724648 -85.97703615 49.3325421 -83.68359375 47.96875 C-82.5632373 47.30230469 -81.44288086 46.63585937 -80.28857422 45.94921875 C-75.2486172 42.96191238 -70.18853226 40.0096191 -65.125 37.0625 C-56.82357782 32.22942797 -48.52743139 27.38761133 -40.24008179 22.53045654 C-38.39249502 21.44775225 -36.54451793 20.36571627 -34.6965332 19.28369141 C-28.89851003 15.88679126 -23.10976933 12.47577564 -17.33984375 9.03125 C-16.31777832 8.42224854 -15.29571289 7.81324707 -14.24267578 7.18579102 C-12.33381651 6.04686906 -10.42712355 4.90430594 -8.52294922 3.75756836 C-7.68650879 3.25878174 -6.85006836 2.75999512 -5.98828125 2.24609375 C-5.26165283 1.80966553 -4.53502441 1.3732373 -3.78637695 0.92358398 C-2 0 -2 0 0 0 Z " fill="#F0EBE8" transform="translate(311,110)"/>
<path d="M0 0 C0 45.21 0 90.42 0 137 C-0.66 137.33 -1.32 137.66 -2 138 C-2 93.45 -2 48.9 -2 3 C-3.32 3.33 -4.64 3.66 -6 4 C-2.25 0 -2.25 0 0 0 Z " fill="#FAFCF9" transform="translate(311,110)"/>
<path d="M0 0 C0.66 0.33 1.32 0.66 2 1 C0.37829621 2.00533667 -1.24747237 3.00411907 -2.875 4 C-4.23238281 4.8353125 -4.23238281 4.8353125 -5.6171875 5.6875 C-8 7 -8 7 -10 7 C-10 50.89 -10 94.78 -10 140 C-7.36 139.67 -4.72 139.34 -2 139 C-5.0202692 142.35585467 -6.55392503 143.22157001 -11 145 C-11 99.13 -11 53.26 -11 6 C-7.37 4.02 -3.74 2.04 0 0 Z " fill="#FAFCFC" transform="translate(195,177)"/>
<path d="M0 0 C0.33 0 0.66 0 1 0 C1.33 45.21 1.66 90.42 2 137 C4.475 136.01 4.475 136.01 7 135 C7 135.66 7 136.32 7 137 C3.63316085 139.43160605 2.26649636 140 -2 140 C-2 139.34 -2 138.68 -2 138 C-1.34 138 -0.68 138 0 138 C0 92.46 0 46.92 0 0 Z " fill="#DA3C35" transform="translate(183,184)"/>
<path d="M0 0 C-1 3 -1 3 -2.9375 4.25 C-3.618125 4.4975 -4.29875 4.745 -5 5 C-5.66 4.67 -6.32 4.34 -7 4 C-7 4.66 -7 5.32 -7 6 C-11.455 7.485 -11.455 7.485 -16 9 C-12.1305235 4.45757106 -6.1119872 0 0 0 Z " fill="#D42926" transform="translate(310,249)"/>
<path d="M0 0 C0.33 0.66 0.66 1.32 1 2 C0.401875 2.2475 -0.19625 2.495 -0.8125 2.75 C-3.12220525 3.83127343 -3.12220525 3.83127343 -4.1875 6 C-7.07018299 9.18089158 -10.88246879 9.34395729 -15 10 C-12.04732794 6.76612108 -9.12077252 4.77754751 -5.25 2.75 C-4.26515625 2.22921875 -3.2803125 1.7084375 -2.265625 1.171875 C-1.51796875 0.78515625 -0.7703125 0.3984375 0 0 Z " fill="#D21C18" transform="translate(233,293)"/>
<path d="M0 0 C0.33 1.32 0.66 2.64 1 4 C-5.75 6.125 -5.75 6.125 -8 5 C-4.04 2.525 -4.04 2.525 0 0 Z " fill="#D3221E" transform="translate(243,287)"/>
<path d="M0 0 C0.66 0.33 1.32 0.66 2 1 C-0.82553984 5.23830976 -3.12180888 4.97715348 -8 6 C-5.54080489 3.3651481 -3.42227589 1.25483449 0 0 Z " fill="#D01D19" transform="translate(275,268)"/>
<path d="M0 0 C3.375 0.25 3.375 0.25 7 1 C8.4375 3.0625 8.4375 3.0625 9 5 C5.22454612 3.90931332 2.52956528 3.0916909 0 0 Z " fill="#E4312A" transform="translate(170,14)"/>
<path d="M0 0 C0 0.99 0 1.98 0 3 C-2.5654594 5.5654594 -4.47686668 5.54046087 -8 6 C-5.51047079 3.33264727 -3.36591866 1.44253657 0 0 Z " fill="#D11F1C" transform="translate(253,281)"/>
<path d="M0 0 C0.33 0.99 0.66 1.98 1 3 C-3.455 4.485 -3.455 4.485 -8 6 C-5.51047079 3.33264727 -3.36591866 1.44253657 0 0 Z " fill="#D11A17" transform="translate(302,252)"/>
</svg>
