<?xml version="1.0" standalone="no"?>
<!DOCTYPE svg PUBLIC "-//W3C//DTD SVG 20010904//EN"
 "http://www.w3.org/TR/2001/REC-SVG-20010904/DTD/svg10.dtd">
<svg version="1.0" xmlns="http://www.w3.org/2000/svg"
 width="34.000000pt" height="34.000000pt" viewBox="0 0 34.000000 34.000000"
 preserveAspectRatio="xMidYMid meet">

<g transform="translate(0.000000,34.000000) scale(0.100000,-0.100000)"
fill="#000000" stroke="none">
<path d="M104 321 c-109 -50 -134 -183 -50 -267 64 -64 155 -67 226 -7 45 37
30 39 -28 4 -27 -17 -54 -31 -61 -31 -7 0 -11 23 -11 65 l0 65 55 35 c87 56
85 56 86 -16 1 -60 2 -62 12 -31 20 65 -24 150 -97 183 -52 23 -80 23 -132 0z
m164 -47 c17 -10 32 -21 32 -25 0 -4 -29 -23 -64 -43 l-64 -36 -61 36 c-34 20
-61 40 -61 44 0 5 28 24 63 43 62 35 62 35 92 18 17 -10 45 -27 63 -37z m-163
-82 l60 -37 3 -68 c3 -79 0 -81 -78 -34 l-55 33 -3 72 c-2 40 1 72 5 71 4 0
35 -17 68 -37z"/>
</g>
</svg>
